<svg width="24" height="24" viewBox="0 0 24 24" fill="none" xmlns="http://www.w3.org/2000/svg">
<path d="M17 3.82843C17.2626 3.56578 17.5744 3.35744 17.9176 3.2153C18.2608 3.07316 18.6286 3 19 3C19.3714 3 19.7392 3.07316 20.0824 3.2153C20.4256 3.35744 20.7374 3.56578 21 3.82843C21.2626 4.09107 21.471 4.40287 21.6131 4.74603C21.7553 5.0892 21.8284 5.45699 21.8284 5.82843C21.8284 6.19986 21.7553 6.56766 21.6131 6.91082C21.471 7.25398 21.2626 7.56578 21 7.82843L7.5 21.3284L2 22.8284L3.5 17.3284L17 3.82843Z" stroke="white" stroke-width="2" stroke-linecap="round" stroke-linejoin="round"/>
</svg>
