<svg width="671" height="694" viewBox="0 0 671 694" fill="none" xmlns="http://www.w3.org/2000/svg">
<g filter="url(#filter0_d_17_285)">
<circle cx="320.366" cy="323.366" r="286.5" fill="url(#paint0_linear_17_285)" fill-opacity="0.5"/>
<path d="M560 474.734H32V474.998H560V474.734Z" fill="#EBEBEB"/>
<path d="M507.094 491.725H472.12V491.989H507.094V491.725Z" fill="#EBEBEB"/>
<path d="M381.768 494.598H372.592V494.862H381.768V494.598Z" fill="#EBEBEB"/>
<path d="M471.064 481.926H450.799V482.19H471.064V481.926Z" fill="#EBEBEB"/>
<path d="M133.006 483.7H87.3977V483.964H133.006V483.7Z" fill="#EBEBEB"/>
<path d="M149.1 483.7H142.415V483.964H149.1V483.7Z" fill="#EBEBEB"/>
<path d="M269.758 488.156H170.832V488.42H269.758V488.156Z" fill="#EBEBEB"/>
<mask id="path-9-inside-1_17_285" fill="white">
<path d="M282.272 427.637H78.3691C76.7717 427.634 75.2407 426.998 74.1122 425.867C72.9837 424.737 72.3499 423.204 72.3499 421.607V134.977C72.3638 133.389 73.0037 131.87 74.1307 130.751C75.2578 129.632 76.7808 129.003 78.3691 129H282.272C283.871 129 285.405 129.635 286.536 130.766C287.667 131.897 288.302 133.431 288.302 135.03V421.607C288.302 423.206 287.667 424.74 286.536 425.871C285.405 427.002 283.871 427.637 282.272 427.637ZM78.3691 129.211C76.8417 129.214 75.3779 129.823 74.2989 130.904C73.2199 131.985 72.6139 133.45 72.6139 134.977V421.607C72.6139 423.134 73.2199 424.599 74.2989 425.68C75.3779 426.761 76.8417 427.37 78.3691 427.373H282.272C283.8 427.37 285.265 426.762 286.346 425.681C287.427 424.6 288.035 423.135 288.038 421.607V134.977C288.035 133.449 287.427 131.984 286.346 130.903C285.265 129.822 283.8 129.214 282.272 129.211H78.3691Z"/>
</mask>
<path d="M282.272 427.637H78.3691C76.7717 427.634 75.2407 426.998 74.1122 425.867C72.9837 424.737 72.3499 423.204 72.3499 421.607V134.977C72.3638 133.389 73.0037 131.87 74.1307 130.751C75.2578 129.632 76.7808 129.003 78.3691 129H282.272C283.871 129 285.405 129.635 286.536 130.766C287.667 131.897 288.302 133.431 288.302 135.03V421.607C288.302 423.206 287.667 424.74 286.536 425.871C285.405 427.002 283.871 427.637 282.272 427.637ZM78.3691 129.211C76.8417 129.214 75.3779 129.823 74.2989 130.904C73.2199 131.985 72.6139 133.45 72.6139 134.977V421.607C72.6139 423.134 73.2199 424.599 74.2989 425.68C75.3779 426.761 76.8417 427.37 78.3691 427.373H282.272C283.8 427.37 285.265 426.762 286.346 425.681C287.427 424.6 288.035 423.135 288.038 421.607V134.977C288.035 133.449 287.427 131.984 286.346 130.903C285.265 129.822 283.8 129.214 282.272 129.211H78.3691Z" fill="#EBEBEB"/>
<path d="M78.3691 427.637L78.3673 428.637H78.3691V427.637ZM72.3499 421.607H73.3499H72.3499ZM72.3499 134.977L71.3499 134.968V134.977H72.3499ZM78.3691 129V128L78.3673 128L78.3691 129ZM282.272 129V128V129ZM288.302 421.607H287.302H288.302ZM78.3691 129.211V128.211L78.3672 128.211L78.3691 129.211ZM72.6139 134.977H73.6139L73.6139 134.977L72.6139 134.977ZM72.6139 421.607H73.6139H72.6139ZM78.3691 427.373L78.3672 428.373H78.3691V427.373ZM282.272 427.373V428.373H282.274L282.272 427.373ZM288.038 421.607L289.038 421.609V421.607H288.038ZM288.038 134.977H289.038V134.975L288.038 134.977ZM282.272 129.211L282.274 128.211H282.272V129.211ZM282.272 426.637H78.3691V428.637H282.272V426.637ZM78.3708 426.637C77.0383 426.635 75.7613 426.104 74.8199 425.161L73.4045 426.574C74.7201 427.892 76.505 428.634 78.3673 428.637L78.3708 426.637ZM74.8199 425.161C73.8786 424.218 73.3499 422.94 73.3499 421.607H71.3499C71.3499 423.469 72.0888 425.256 73.4045 426.574L74.8199 425.161ZM73.3499 421.607V134.977H71.3499V421.607H73.3499ZM73.3498 134.986C73.3614 133.661 73.8952 132.394 74.8354 131.461L73.4261 130.042C72.1122 131.346 71.3661 133.117 71.3499 134.968L73.3498 134.986ZM74.8354 131.461C75.7755 130.527 77.0459 130.002 78.3708 130L78.3673 128C76.5157 128.003 74.7401 128.737 73.4261 130.042L74.8354 131.461ZM78.3691 130H282.272V128H78.3691V130ZM282.272 130C283.606 130 284.885 130.53 285.829 131.473L287.243 130.059C285.925 128.741 284.137 128 282.272 128V130ZM285.829 131.473C286.772 132.417 287.302 133.696 287.302 135.03H289.302C289.302 133.165 288.561 131.377 287.243 130.059L285.829 131.473ZM287.302 135.03V421.607H289.302V135.03H287.302ZM287.302 421.607C287.302 422.941 286.772 424.22 285.829 425.164L287.243 426.578C288.561 425.26 289.302 423.471 289.302 421.607H287.302ZM285.829 425.164C284.885 426.107 283.606 426.637 282.272 426.637V428.637C284.136 428.637 285.925 427.896 287.243 426.578L285.829 425.164ZM78.3672 128.211C76.575 128.215 74.8573 128.929 73.5911 130.197L75.0066 131.61C75.8985 130.717 77.1084 130.214 78.3709 130.211L78.3672 128.211ZM73.5911 130.197C72.325 131.466 71.6139 133.185 71.6139 134.977L73.6139 134.977C73.6139 133.715 74.1148 132.504 75.0066 131.61L73.5911 130.197ZM71.6139 134.977V421.607H73.6139V134.977H71.6139ZM71.6139 421.607C71.6139 423.399 72.325 425.118 73.5911 426.387L75.0066 424.974C74.1148 424.08 73.6139 422.87 73.6139 421.607H71.6139ZM73.5911 426.387C74.8573 427.655 76.575 428.37 78.3672 428.373L78.3709 426.373C77.1084 426.371 75.8985 425.867 75.0066 424.974L73.5911 426.387ZM78.3691 428.373H282.272V426.373H78.3691V428.373ZM282.274 428.373C284.067 428.37 285.785 427.656 287.053 426.388L285.639 424.974C284.745 425.867 283.534 426.371 282.27 426.373L282.274 428.373ZM287.053 426.388C288.321 425.12 289.035 423.402 289.038 421.609L287.038 421.605C287.036 422.869 286.533 424.08 285.639 424.974L287.053 426.388ZM289.038 421.607V134.977H287.038V421.607H289.038ZM289.038 134.975C289.035 133.182 288.321 131.464 287.053 130.196L285.639 131.61C286.533 132.504 287.036 133.715 287.038 134.979L289.038 134.975ZM287.053 130.196C285.785 128.928 284.067 128.215 282.274 128.211L282.27 130.211C283.534 130.214 284.745 130.717 285.639 131.61L287.053 130.196ZM282.272 128.211H78.3691V130.211H282.272V128.211Z" fill="#258DC2" mask="url(#path-9-inside-1_17_285)"/>
<mask id="path-11-inside-2_17_285" fill="white">
<path d="M510.695 427.637H306.782C305.183 427.634 303.651 426.998 302.521 425.868C301.391 424.738 300.755 423.205 300.752 421.607V134.977C300.769 133.388 301.411 131.869 302.54 130.75C303.668 129.632 305.192 129.003 306.782 129H510.695C512.282 129.006 513.802 129.636 514.927 130.755C516.052 131.874 516.69 133.391 516.704 134.977V421.607C516.704 423.203 516.072 424.733 514.945 425.863C513.819 426.994 512.291 427.631 510.695 427.637ZM306.782 129.211C305.253 129.214 303.788 129.822 302.708 130.903C301.627 131.984 301.019 133.449 301.016 134.977V421.607C301.019 423.135 301.627 424.6 302.708 425.681C303.788 426.762 305.253 427.37 306.782 427.373H510.695C512.224 427.37 513.689 426.762 514.769 425.681C515.85 424.6 516.458 423.135 516.461 421.607V134.977C516.458 133.449 515.85 131.984 514.769 130.903C513.689 129.822 512.224 129.214 510.695 129.211H306.782Z"/>
</mask>
<path d="M510.695 427.637H306.782C305.183 427.634 303.651 426.998 302.521 425.868C301.391 424.738 300.755 423.205 300.752 421.607V134.977C300.769 133.388 301.411 131.869 302.54 130.75C303.668 129.632 305.192 129.003 306.782 129H510.695C512.282 129.006 513.802 129.636 514.927 130.755C516.052 131.874 516.69 133.391 516.704 134.977V421.607C516.704 423.203 516.072 424.733 514.945 425.863C513.819 426.994 512.291 427.631 510.695 427.637ZM306.782 129.211C305.253 129.214 303.788 129.822 302.708 130.903C301.627 131.984 301.019 133.449 301.016 134.977V421.607C301.019 423.135 301.627 424.6 302.708 425.681C303.788 426.762 305.253 427.37 306.782 427.373H510.695C512.224 427.37 513.689 426.762 514.769 425.681C515.85 424.6 516.458 423.135 516.461 421.607V134.977C516.458 133.449 515.85 131.984 514.769 130.903C513.689 129.822 512.224 129.214 510.695 129.211H306.782Z" fill="#EBEBEB"/>
<path d="M306.782 427.637L306.78 428.637H306.782V427.637ZM300.752 421.607H299.752L299.752 421.609L300.752 421.607ZM300.752 134.977L299.752 134.967V134.977H300.752ZM306.782 129V128L306.78 128L306.782 129ZM510.695 129L510.699 128H510.695V129ZM516.704 134.977H517.704L517.704 134.968L516.704 134.977ZM516.704 421.607H515.704V421.607L516.704 421.607ZM306.782 129.211V128.211L306.78 128.211L306.782 129.211ZM301.016 134.977L300.016 134.975V134.977H301.016ZM301.016 421.607H300.016L300.016 421.609L301.016 421.607ZM306.782 427.373L306.78 428.373H306.782V427.373ZM510.695 427.373V428.373H510.697L510.695 427.373ZM516.461 421.607L517.461 421.609V421.607H516.461ZM516.461 134.977H517.461V134.975L516.461 134.977ZM510.695 129.211L510.697 128.211H510.695V129.211ZM510.695 426.637H306.782V428.637H510.695V426.637ZM306.783 426.637C305.45 426.635 304.171 426.104 303.228 425.161L301.814 426.575C303.131 427.892 304.917 428.634 306.78 428.637L306.783 426.637ZM303.228 425.161C302.285 424.217 301.754 422.939 301.752 421.605L299.752 421.609C299.755 423.472 300.497 425.258 301.814 426.575L303.228 425.161ZM301.752 421.607V134.977H299.752V421.607H301.752ZM301.752 134.988C301.766 133.661 302.302 132.394 303.244 131.461L301.836 130.04C300.52 131.344 299.771 133.114 299.752 134.967L301.752 134.988ZM303.244 131.461C304.185 130.527 305.457 130.002 306.783 130L306.78 128C304.928 128.003 303.151 128.736 301.836 130.04L303.244 131.461ZM306.782 130H510.695V128H306.782V130ZM510.692 130C512.015 130.005 513.283 130.531 514.222 131.464L515.632 130.046C514.321 128.742 512.548 128.006 510.699 128L510.692 130ZM514.222 131.464C515.16 132.397 515.692 133.662 515.704 134.986L517.704 134.968C517.688 133.119 516.943 131.35 515.632 130.046L514.222 131.464ZM515.704 134.977V421.607H517.704V134.977H515.704ZM515.704 421.607C515.704 422.938 515.176 424.215 514.237 425.157L515.654 426.569C516.967 425.252 517.704 423.467 517.704 421.607L515.704 421.607ZM514.237 425.157C513.298 426.1 512.023 426.632 510.692 426.637L510.699 428.637C512.559 428.63 514.341 427.887 515.654 426.569L514.237 425.157ZM306.78 128.211C304.987 128.215 303.268 128.928 302.001 130.196L303.415 131.61C304.308 130.717 305.52 130.214 306.784 130.211L306.78 128.211ZM302.001 130.196C300.733 131.464 300.019 133.182 300.016 134.975L302.016 134.979C302.018 133.715 302.521 132.504 303.415 131.61L302.001 130.196ZM300.016 134.977V421.607H302.016V134.977H300.016ZM300.016 421.609C300.019 423.402 300.733 425.12 302.001 426.388L303.415 424.974C302.521 424.08 302.018 422.869 302.016 421.605L300.016 421.609ZM302.001 426.388C303.268 427.656 304.987 428.37 306.78 428.373L306.784 426.373C305.52 426.371 304.308 425.867 303.415 424.974L302.001 426.388ZM306.782 428.373H510.695V426.373H306.782V428.373ZM510.697 428.373C512.49 428.37 514.209 427.656 515.476 426.388L514.062 424.974C513.169 425.867 511.957 426.371 510.693 426.373L510.697 428.373ZM515.476 426.388C516.744 425.12 517.458 423.402 517.461 421.609L515.461 421.605C515.459 422.869 514.956 424.08 514.062 424.974L515.476 426.388ZM517.461 421.607V134.977H515.461V421.607H517.461ZM517.461 134.975C517.458 133.182 516.744 131.464 515.476 130.196L514.062 131.61C514.956 132.504 515.459 133.715 515.461 134.979L517.461 134.975ZM515.476 130.196C514.209 128.928 512.49 128.215 510.697 128.211L510.693 130.211C511.957 130.214 513.169 130.717 514.062 131.61L515.476 130.196ZM510.695 128.211H306.782V130.211H510.695V128.211Z" fill="#258DC2" mask="url(#path-11-inside-2_17_285)"/>
<path d="M333.784 132.464C317.975 134.781 303.316 142.075 291.934 153.288C279.738 165.326 272.208 181.346 259.99 193.416C247.885 205.4 232.753 213.871 216.209 217.926C202.597 221.231 189.703 218.665 176.25 222.699C154.736 229.088 135.526 241.556 120.93 258.604C106.335 275.652 96.9749 296.554 93.9766 318.795C91.4528 337.317 93.5859 356.811 102.425 373.316C109.436 386.303 120.23 396.851 133.376 403.56C155.151 414.564 180.674 413.856 204.899 416.728C227.568 419.404 249.723 425.388 270.656 434.49C296.824 445.895 321.08 462.168 348.716 469.338C381.789 477.913 418.982 471.925 445.963 450.953C472.943 429.981 488.076 393.729 481.222 360.253C476.998 339.714 465.382 321.53 458.381 301.793C452.337 284.819 449.703 266.819 450.63 248.824C451.507 231.865 455.519 214.536 451.084 198.136C447.758 185.771 439.838 175.084 430.735 166.076C406.817 142.358 368.156 127.057 333.784 132.464Z" fill="#258DC2" fill-opacity="0.12"/>
<path d="M255.851 257.716H250.455L249.114 253.481L247.804 257.716H242.26L246.632 261.496L244.541 268.265L249.114 263.629L253.802 268.265L251.627 261.422L255.851 257.716Z" fill="white"/>
<path d="M353.985 430.456H348.578L347.237 426.222L345.928 430.456H340.384L344.755 434.237L342.665 441.006L347.237 436.37L351.926 441.006L349.761 434.163L353.985 430.456Z" fill="white"/>
<path d="M256.273 331.351H253.961L253.391 329.534L252.831 331.351H250.455L252.324 332.966L251.437 335.86L253.391 333.885L255.397 335.86L254.468 332.935L256.273 331.351Z" fill="white"/>
<path d="M401.283 315.205H398.971L398.4 313.388L397.841 315.205H395.465L397.334 316.82L396.447 319.714L398.4 317.728L400.407 319.714L399.477 316.789L401.283 315.205Z" fill="white"/>
<path d="M257.551 305.986H255.249L254.668 304.169L254.108 305.986H251.743L253.612 307.601L252.714 310.495L254.668 308.52L256.674 310.495L255.745 307.57L257.551 305.986Z" fill="white"/>
<path d="M176.588 313.811H174.275L173.705 312.005L173.145 313.811H170.769L172.638 315.426L171.751 318.33L173.705 316.345L175.711 318.33L174.782 315.405L176.588 313.811Z" fill="white"/>
<path d="M186.081 357.856H183.779L183.198 356.04L182.638 357.856H180.273L182.142 359.472L181.244 362.365L183.198 360.38L185.204 362.365L184.275 359.44L186.081 357.856Z" fill="white"/>
<path d="M390.903 269.733H388.59L388.02 267.917L387.46 269.733H385.084L386.953 271.349L386.066 274.242L388.02 272.268L390.026 274.242L389.097 271.317L390.903 269.733Z" fill="white"/>
<path d="M373.743 208.052H372.074L371.662 206.732L371.251 208.052H369.54L370.891 209.214L370.247 211.305L371.662 209.879L373.109 211.305L372.433 209.193L373.743 208.052Z" fill="white"/>
<path d="M276.696 270.113H275.028L274.616 268.793L274.204 270.113H272.493L273.845 271.275L273.201 273.366L274.616 271.94L276.063 273.366L275.397 271.254L276.696 270.113Z" fill="white"/>
<path d="M214.075 283.609H212.407L211.985 282.3L211.583 283.609H209.873L211.224 284.771L210.58 286.872L211.985 285.436L213.431 286.872L212.766 284.76L214.075 283.609Z" fill="white"/>
<path d="M304.11 207.894H302.442L302.03 206.584L301.618 207.894H299.907L301.259 209.055L300.615 211.146L302.03 209.721L303.476 211.146L302.801 209.034L304.11 207.894Z" fill="white"/>
<path d="M429.362 289.501H427.694L427.282 288.192L426.87 289.501H425.159L426.511 290.674L425.867 292.764L427.282 291.328L428.729 292.764L428.053 290.652L429.362 289.501Z" fill="white"/>
<path d="M385.897 237.758H384.239L383.817 236.448L383.416 237.758H381.694L383.057 238.93L382.402 241.021L383.817 239.584L385.264 241.021L384.598 238.909L385.897 237.758Z" fill="white"/>
<path d="M437.493 322.164H435.825L435.403 320.854L435.001 322.164H433.291L434.642 323.336L433.998 325.427L435.403 323.99L436.86 325.427L436.184 323.304L437.493 322.164Z" fill="white"/>
<path d="M399.023 387.731H397.355L396.933 386.421L396.531 387.731H394.821L396.172 388.892L395.528 390.983L396.933 389.557L398.379 390.983L397.714 388.871L399.023 387.731Z" fill="white"/>
<path d="M370.659 317.855H368.991L368.579 316.546L368.167 317.855H366.456L367.808 319.027L367.164 321.118L368.579 319.693L370.026 321.118L369.35 319.006L370.659 317.855Z" fill="white"/>
<path d="M275.767 328.056H274.099L273.676 326.747L273.275 328.056H271.564L272.916 329.228L272.272 331.319L273.676 329.894L275.133 331.319L274.458 329.207L275.767 328.056Z" fill="white"/>
<path d="M200.453 408.09H198.14L197.57 406.274L197 408.09H194.635L196.504 409.706L195.617 412.599L197.57 410.614L199.577 412.599L198.647 409.674L200.453 408.09Z" fill="white"/>
<path d="M393.807 460.204H391.505L390.924 458.398L390.364 460.204H387.988L389.868 461.82L388.97 464.713L390.924 462.738L392.93 464.713L392.001 461.788L393.807 460.204Z" fill="white"/>
<path d="M254.161 361.637H251.849L251.278 359.82L250.719 361.637H248.343L250.222 363.252L249.325 366.146L251.278 364.171L253.285 366.146L252.356 363.221L254.161 361.637Z" fill="white"/>
<path d="M425.843 415.148C430.746 413.117 433.074 407.496 431.043 402.593C429.012 397.689 423.391 395.361 418.488 397.392C413.584 399.423 411.256 405.044 413.287 409.948C415.318 414.851 420.939 417.179 425.843 415.148Z" fill="white"/>
<path d="M333.752 179.382C333.752 180.455 333.434 181.505 332.837 182.397C332.241 183.29 331.393 183.986 330.401 184.396C329.409 184.807 328.318 184.915 327.265 184.705C326.212 184.496 325.245 183.979 324.486 183.22C323.727 182.461 323.21 181.494 323.001 180.441C322.791 179.388 322.899 178.296 323.309 177.305C323.72 176.313 324.416 175.465 325.309 174.869C326.201 174.272 327.251 173.954 328.324 173.954C329.764 173.954 331.144 174.526 332.162 175.544C333.18 176.562 333.752 177.942 333.752 179.382Z" fill="white"/>
<path d="M137.273 296.545L132.806 297.96C131.524 297.741 130.206 297.983 129.086 298.644C127.967 299.306 127.118 300.343 126.692 301.572L123.238 304.792C123.164 304.861 123.115 304.952 123.1 305.052C123.085 305.152 123.104 305.253 123.154 305.341C123.205 305.428 123.284 305.496 123.378 305.532C123.472 305.569 123.575 305.572 123.671 305.542L128.149 304.19C129.458 304.461 130.821 304.241 131.979 303.573C133.137 302.906 134.01 301.837 134.432 300.568L137.769 297.337C137.851 297.262 137.904 297.161 137.919 297.05C137.934 296.94 137.91 296.829 137.851 296.734C137.792 296.64 137.701 296.57 137.596 296.535C137.49 296.501 137.376 296.504 137.273 296.545Z" fill="white"/>
<path d="M296 522.423C409.079 522.423 500.748 517.071 500.748 510.47C500.748 503.868 409.079 498.516 296 498.516C182.921 498.516 91.2522 503.868 91.2522 510.47C91.2522 517.071 182.921 522.423 296 522.423Z" fill="#78B72A" fill-opacity="0.2"/>
<path d="M460.725 443.73L475.372 434.29L470.831 446.687H459.881L460.725 443.73Z" fill="#263238"/>
<path opacity="0.2" d="M460.725 443.73L475.372 434.29L470.831 446.687H459.881L460.725 443.73Z" fill="white"/>
<path opacity="0.4" d="M461.021 443.868L475.214 434.723L470.831 446.687H460.145L461.021 443.868Z" fill="white"/>
<path d="M475.404 452.421L486.692 425.989H479.448L469.047 452.907L475.404 452.421Z" fill="#263238"/>
<path opacity="0.2" d="M475.404 452.421L486.692 425.989H479.448L469.047 452.907L475.404 452.421Z" fill="white"/>
<path opacity="0.4" d="M475.404 452.421L486.598 426.211H479.565L469.269 452.886L475.404 452.421Z" fill="white"/>
<path d="M475.847 452.326L487.052 425.821L493.303 425.662L482.521 451.376L475.847 452.326Z" fill="#263238"/>
<path opacity="0.2" d="M475.847 452.326L487.052 425.821L493.303 425.662L482.521 451.376L475.847 452.326Z" fill="white"/>
<path opacity="0.4" d="M475.974 452.305L487.221 425.989L493.24 425.82L482.521 451.376L475.974 452.305Z" fill="white"/>
<path d="M493.662 425.504L499.66 425.377L488.91 450.309L482.912 451.175L493.662 425.504Z" fill="#263238"/>
<path opacity="0.2" d="M493.662 425.504L499.66 425.377L488.91 450.309L482.912 451.175L493.662 425.504Z" fill="white"/>
<path opacity="0.4" d="M493.768 425.662L499.607 425.493L488.91 450.309L483.049 451.154L493.768 425.662Z" fill="white"/>
<path d="M500.04 425.377L505.299 425.219L494.971 449.433L489.227 450.277L500.04 425.377Z" fill="#263238"/>
<path opacity="0.2" d="M500.04 425.377L505.299 425.219L494.971 449.433L489.227 450.277L500.04 425.377Z" fill="white"/>
<path opacity="0.4" d="M500.156 425.493L505.267 425.303L494.971 449.433L489.396 450.246L500.156 425.493Z" fill="white"/>
<path d="M454.58 446.772L445.34 472.189L462.626 467.395L471.18 442.759L454.58 446.772Z" fill="#78B72A"/>
<path opacity="0.2" d="M454.58 446.772L445.34 472.189L462.626 467.395L471.18 442.759L454.58 446.772Z" fill="black"/>
<path d="M430.45 432.663L454.579 446.772L445.339 472.189L421.822 456.561L430.45 432.663Z" fill="#78B72A"/>
<path opacity="0.05" d="M430.45 432.663L454.579 446.772L445.339 472.189L421.822 456.561L430.45 432.663Z" fill="black"/>
<path d="M430.45 432.663L448.254 431.291L471.18 442.759L454.58 446.772L430.45 432.663Z" fill="#78B72A"/>
<path opacity="0.4" d="M430.45 432.663L448.254 431.291L471.18 442.759L454.58 446.772L430.45 432.663Z" fill="white"/>
<path d="M461.179 423.244L461.855 423.592L456.121 438.999L455.266 438.735L461.179 423.244Z" fill="#263238"/>
<path opacity="0.4" d="M461.179 423.244L461.443 423.381L455.551 438.82L455.266 438.735L461.179 423.244Z" fill="white"/>
<path opacity="0.2" d="M461.855 423.592L461.444 423.381L455.551 438.82L456.121 438.999L461.855 423.592Z" fill="white"/>
<path d="M378.009 429.918L366.118 468.589L379.804 466.455L391.874 429.411L378.009 429.918Z" fill="#263238"/>
<path opacity="0.2" d="M378.009 429.918L366.118 468.589L379.804 466.455L391.874 429.411L378.009 429.918Z" fill="white"/>
<path opacity="0.4" d="M378.22 430.14L366.414 468.546L379.804 466.455L391.769 429.717L378.22 430.14Z" fill="white"/>
<path d="M392.466 429.411L380.575 466.455L393.49 464.565L405.296 428.893L392.466 429.411Z" fill="#263238"/>
<path opacity="0.2" d="M392.466 429.411L380.575 466.455L393.49 464.565L405.296 428.893L392.466 429.411Z" fill="white"/>
<path opacity="0.4" d="M392.687 429.717L380.881 466.403L393.49 464.565L405.233 429.115L392.687 429.717Z" fill="white"/>
<path d="M405.813 428.904L394.05 464.269L405.813 462.77L417.577 428.598L405.813 428.904Z" fill="#263238"/>
<path opacity="0.2" d="M405.813 428.904L394.05 464.269L405.813 462.77L417.577 428.598L405.813 428.904Z" fill="white"/>
<path opacity="0.4" d="M405.972 429.115L394.366 464.227L405.813 462.77L417.472 428.893L405.972 429.115Z" fill="white"/>
<path d="M418.052 428.292L406.162 462.601L417.324 461.017L428.866 427.911L418.052 428.292Z" fill="#263238"/>
<path opacity="0.2" d="M418.052 428.292L406.162 462.601L417.324 461.017L428.866 427.911L418.052 428.292Z" fill="white"/>
<path opacity="0.4" d="M418.179 428.513L406.426 462.569L417.324 461.017L428.792 428.123L418.179 428.513Z" fill="white"/>
<path d="M439.077 446.434L437.673 450.499L420.27 453.963L426.353 437.025L439.077 446.434Z" fill="#263238"/>
<path opacity="0.2" d="M439.077 446.434L437.673 450.499L420.27 453.963L426.353 437.025L439.077 446.434Z" fill="white"/>
<path opacity="0.4" d="M438.951 446.772L437.673 450.499L420.587 453.9L426.479 437.363L438.951 446.772Z" fill="white"/>
<path d="M471.56 444.543L454.97 475.452C450.535 473.34 450.503 460.764 453.809 453.54C457.895 446.529 466.966 443.086 471.56 444.543Z" fill="#263238"/>
<g opacity="0.2">
<path opacity="0.2" d="M456.301 472.96L455.583 474.301C451.475 470.426 451.823 459.317 453.809 453.541C450.683 465.927 456.301 472.96 456.301 472.96Z" fill="black"/>
</g>
<g opacity="0.3">
<path opacity="0.3" d="M471.56 444.543L454.97 475.452C450.535 473.34 450.503 460.764 453.809 453.54C457.895 446.529 466.966 443.086 471.56 444.543Z" fill="white"/>
</g>
<path opacity="0.2" d="M454.844 452.58C461.401 446.856 466.069 445.958 470.177 447.12L470.842 445.874C465.763 445.24 461.021 446.465 454.844 452.58Z" fill="white"/>
<path d="M456.86 456.223C452.003 464.671 450.926 473.119 454.453 475.146C457.98 477.174 464.77 471.978 469.627 463.594C474.485 455.209 475.562 446.698 472.035 444.681C468.508 442.664 461.718 447.817 456.86 456.223Z" fill="#78B72A"/>
<path opacity="0.4" d="M456.86 456.223C452.003 464.671 450.926 473.119 454.453 475.146C457.98 477.174 464.77 471.978 469.627 463.594C474.485 455.209 475.562 446.698 472.035 444.681C468.508 442.664 461.718 447.817 456.86 456.223Z" fill="white"/>
<path opacity="0.2" d="M456.882 455.906C455.946 457.57 455.165 459.316 454.548 461.123C454.289 461.808 454.264 462.561 454.478 463.262C454.692 463.963 455.133 464.574 455.731 464.998C457.42 465.97 460.683 463.488 463.017 459.454C465.351 455.42 465.868 451.344 464.179 450.362C463.186 449.792 461.275 450.161 459.891 451.745C458.762 453.036 457.754 454.429 456.882 455.906Z" fill="black"/>
<path d="M465.763 458.768L461.348 456.983L458.846 454.248C458.243 454.436 457.728 454.835 457.396 455.373C457.064 455.91 456.938 456.55 457.04 457.173L460.44 458.293L463.82 462.105L465.763 458.768Z" fill="#263238"/>
<path opacity="0.2" d="M465.763 458.768L461.348 456.983L458.846 454.248C458.243 454.436 457.728 454.835 457.396 455.373C457.064 455.91 456.938 456.55 457.04 457.173L460.44 458.293L463.82 462.105L465.763 458.768Z" fill="white"/>
<path d="M464.084 460.045C463.545 460.985 463.429 461.915 463.82 462.157C464.21 462.4 464.96 461.809 465.499 460.88C466.037 459.95 466.153 459.011 465.763 458.768C465.372 458.525 464.622 459.116 464.084 460.045Z" fill="#263238"/>
<path opacity="0.4" d="M464.084 460.045C463.545 460.985 463.429 461.915 463.82 462.157C464.21 462.4 464.96 461.809 465.499 460.88C466.037 459.95 466.153 459.011 465.763 458.768C465.372 458.525 464.622 459.116 464.084 460.045Z" fill="white"/>
<path opacity="0.2" d="M457.431 455.367C457.12 455.931 456.984 456.574 457.04 457.215L460.44 458.335L463.819 462.147C463.397 461.83 463.693 460.563 464.178 459.898C464.178 459.898 462.848 459.063 457.431 455.367Z" fill="black"/>
<path opacity="0.2" d="M465.467 458.736L461.232 457.142L458.603 454.385L458.434 454.449L461.158 457.173L465.224 458.821L465.467 458.736Z" fill="white"/>
<g opacity="0.2">
<path opacity="0.2" d="M464.295 460.172C463.841 460.964 463.735 461.767 464.062 461.957C464.39 462.147 465.044 461.661 465.498 460.901C465.953 460.141 466.058 459.306 465.731 459.106C465.403 458.905 464.749 459.37 464.295 460.172Z" fill="black"/>
<path opacity="0.4" d="M464.295 460.172C463.841 460.964 463.735 461.767 464.062 461.957C464.39 462.147 465.044 461.661 465.498 460.901C465.953 460.141 466.058 459.306 465.731 459.106C465.403 458.905 464.749 459.37 464.295 460.172Z" fill="black"/>
</g>
<path d="M457.304 473.193L457.515 473.531L469.617 467.628L469.459 467.311L457.304 473.193Z" fill="#263238"/>
<path opacity="0.1" d="M457.304 473.193L457.515 473.531L469.617 467.628L469.459 467.311L457.304 473.193Z" fill="white"/>
<path d="M473.102 450.753H473.419L473.757 461.355H473.334L473.102 450.753Z" fill="#263238"/>
<path opacity="0.1" d="M473.102 450.753H473.419L473.757 461.355H473.334L473.102 450.753Z" fill="white"/>
<path d="M458.899 453.34L473.756 461.355L473.577 461.598L458.624 453.615L458.899 453.34Z" fill="#263238"/>
<path opacity="0.1" d="M458.899 453.34L473.756 461.355L473.577 461.598L458.624 453.615L458.899 453.34Z" fill="white"/>
<path d="M458.254 454.364L458.508 454.047L469.723 467.163L469.554 467.416L458.254 454.364Z" fill="#263238"/>
<path opacity="0.1" d="M458.254 454.364L458.508 454.047L469.723 467.163L469.554 467.416L458.254 454.364Z" fill="white"/>
<path d="M470.346 463.953C469.29 465.843 469.015 467.744 469.807 468.177C470.599 468.61 472.13 467.48 473.218 465.59C474.306 463.699 474.548 461.798 473.756 461.366C472.964 460.933 471.444 462.062 470.346 463.953Z" fill="#263238"/>
<path opacity="0.2" d="M470.346 463.953C469.29 465.843 469.015 467.744 469.807 468.177C470.599 468.61 472.13 467.48 473.218 465.59C474.306 463.699 474.548 461.798 473.756 461.366C472.964 460.933 471.444 462.062 470.346 463.953Z" fill="white"/>
<path opacity="0.1" d="M470.641 464.122C469.659 465.822 469.448 467.522 470.156 467.934C470.863 468.346 472.268 467.3 473.218 465.611C474.168 463.921 474.411 462.2 473.704 461.788C472.996 461.376 471.623 462.422 470.641 464.122Z" fill="black"/>
<path opacity="0.2" d="M437.673 450.499L421.822 456.561L422.984 453.34L437.673 450.499Z" fill="black"/>
<path d="M451.475 236.987C467.006 236.987 479.596 224.396 479.596 208.865C479.596 193.334 467.006 180.744 451.475 180.744C435.944 180.744 423.354 193.334 423.354 208.865C423.354 224.396 435.944 236.987 451.475 236.987Z" fill="#78B72A"/>
<path opacity="0.4" d="M451.475 236.987C467.006 236.987 479.596 224.396 479.596 208.865C479.596 193.334 467.006 180.744 451.475 180.744C435.944 180.744 423.354 193.334 423.354 208.865C423.354 224.396 435.944 236.987 451.475 236.987Z" fill="white"/>
<path opacity="0.4" d="M451.475 236.987C467.006 236.987 479.596 224.396 479.596 208.865C479.596 193.334 467.006 180.744 451.475 180.744C435.944 180.744 423.354 193.334 423.354 208.865C423.354 224.396 435.944 236.987 451.475 236.987Z" fill="white"/>
<path opacity="0.2" d="M426.701 195.528C426.068 198.696 428.264 200.027 433.09 199.752C444.529 199.113 455.71 196.099 465.921 190.903C468.16 189.372 468.382 187.629 467.537 185.771C481.191 196.616 482.141 211.115 476.196 222.255C474.748 224.45 472.577 226.068 470.061 226.828C462.771 229.698 455.127 231.57 447.336 232.393C440.123 233.449 435.889 232.974 434.262 231.094C421.96 221.558 420.925 206.933 426.701 195.528Z" fill="white"/>
<path opacity="0.2" d="M423.354 208.865C423.325 214.278 424.946 219.571 428 224.04C429.478 226.152 434.262 226.575 441.728 225.529C451.431 224.529 460.951 222.198 470.018 218.602C474.96 216.659 478.234 214.177 479.638 211.062C479.966 206.071 478.976 201.082 476.766 196.595C476.333 200.481 473.672 203.702 468.318 206.099C457.848 210.019 446.958 212.709 435.867 214.114C428.803 214.927 423.934 213.765 423.354 208.865Z" fill="white"/>
<path opacity="0.1" d="M440.165 184.113C442.848 183.076 445.629 182.315 448.465 181.842C452.193 181.462 452.837 182.096 452.425 183.078C451.318 184.213 450.007 185.13 448.56 185.781C446.312 186.756 443.925 187.372 441.485 187.608C439.785 187.682 437.979 187.724 436.955 186.943C436.448 186.024 437.969 185.053 440.165 184.113Z" fill="black"/>
<path d="M496.894 195.053C495.489 190.723 486.249 189.509 473.355 191.209C474.507 192.597 475.506 194.105 476.333 195.708C480.948 195.887 484 196.985 484.665 199.023C486.291 204.061 472.764 212.952 454.442 218.876C436.121 224.8 419.953 225.54 418.327 220.502C417.62 218.39 419.32 215.782 423.375 212.741C423.322 212.741 423.66 212.519 423.607 212.551C423.382 210.8 423.318 209.033 423.417 207.271C411.653 213.543 404.641 220.08 406.067 224.473C408.306 231.369 430.45 230.376 455.541 222.245C480.631 214.114 499.132 201.949 496.894 195.053Z" fill="#78B72A"/>
<path opacity="0.3" d="M496.894 195.053C495.489 190.723 486.249 189.509 473.355 191.209C474.507 192.597 475.506 194.105 476.333 195.708C480.948 195.887 484 196.985 484.665 199.023C486.291 204.061 472.764 212.952 454.442 218.876C436.121 224.8 419.953 225.54 418.327 220.502C417.62 218.39 419.32 215.782 423.375 212.741C423.322 212.741 423.66 212.519 423.607 212.551C423.382 210.8 423.318 209.033 423.417 207.271C411.653 213.543 404.641 220.08 406.067 224.473C408.306 231.369 430.45 230.376 455.541 222.245C480.631 214.114 499.132 201.949 496.894 195.053Z" fill="white"/>
<path d="M181.195 288.611C197.283 272.524 197.283 246.441 181.195 230.354C165.108 214.266 139.025 214.266 122.937 230.354C106.85 246.441 106.85 272.524 122.937 288.611C139.025 304.699 165.108 304.699 181.195 288.611Z" fill="#78B72A"/>
<path opacity="0.4" d="M181.195 288.611C197.283 272.524 197.283 246.441 181.195 230.354C165.108 214.266 139.025 214.266 122.937 230.354C106.85 246.441 106.85 272.524 122.937 288.611C139.025 304.699 165.108 304.699 181.195 288.611Z" fill="white"/>
<path opacity="0.2" d="M181.635 262.658L180.695 262.795C180.574 262.815 180.45 262.808 180.332 262.775C180.213 262.742 180.103 262.684 180.009 262.605L178.488 261.327C178.422 261.276 178.351 261.23 178.277 261.19L173.842 259.279C173.692 259.214 173.564 259.107 173.472 258.973L170.97 255.435C170.859 255.273 170.705 255.145 170.526 255.065L169.058 254.389C168.992 254.357 168.92 254.336 168.847 254.326L167.295 254.094C167.081 254.056 166.878 253.969 166.703 253.84L163.409 251.348C163.275 251.25 163.119 251.188 162.955 251.169L160.536 250.852C160.379 250.83 160.218 250.852 160.072 250.915L159.417 251.2C159.307 251.247 159.188 251.272 159.069 251.272C158.949 251.272 158.83 251.247 158.72 251.2L155.837 249.87C155.667 249.786 155.473 249.764 155.288 249.806L152.733 250.377C152.573 250.417 152.429 250.505 152.321 250.63L151.265 251.792C151.175 251.891 151.06 251.965 150.932 252.006C150.804 252.047 150.667 252.053 150.536 252.024L148.424 251.581L143.978 249.595L142.532 247.335C142.424 247.158 142.387 246.947 142.426 246.744L142.743 244.991L143.799 242.478C143.811 242.453 143.816 242.426 143.814 242.399C143.811 242.371 143.801 242.345 143.785 242.323C143.768 242.302 143.746 242.285 143.721 242.275C143.695 242.265 143.667 242.262 143.64 242.267L141.771 242.488C141.653 242.503 141.541 242.546 141.442 242.612C141.343 242.678 141.26 242.765 141.201 242.869L140.652 243.819C140.589 243.925 140.505 244.017 140.405 244.09C140.305 244.163 140.192 244.214 140.071 244.241L137.516 244.812C137.398 244.841 137.274 244.825 137.168 244.766C137.062 244.708 136.982 244.61 136.945 244.495L136.629 243.534L135.847 242.098C135.775 241.98 135.737 241.845 135.737 241.707C135.737 241.569 135.775 241.434 135.847 241.316L137.114 239.468L137.611 238.19C137.673 238.025 137.788 237.884 137.938 237.789L139.617 236.733C139.788 236.629 139.988 236.584 140.187 236.606L141.782 236.828C141.883 236.843 141.986 236.837 142.084 236.81C142.182 236.782 142.273 236.735 142.352 236.67L142.996 236.163C143.113 236.077 143.253 236.026 143.398 236.015L145.182 235.888C145.328 235.88 145.473 235.91 145.605 235.973L146.566 236.416C146.658 236.462 146.736 236.533 146.79 236.621C146.844 236.708 146.872 236.81 146.872 236.913V237.768C146.872 237.902 146.925 238.031 147.02 238.126C147.115 238.222 147.244 238.275 147.379 238.275H147.664C147.755 238.274 147.845 238.254 147.928 238.217C148.011 238.179 148.086 238.125 148.147 238.058C148.208 237.991 148.255 237.911 148.285 237.825C148.314 237.739 148.326 237.648 148.318 237.557L148.234 236.818L148.065 235.318C148.048 235.175 148.075 235.031 148.143 234.904C148.211 234.777 148.317 234.675 148.445 234.611L150.156 233.755L152.395 231.295L153.915 229.003L156.724 228.127C156.842 228.091 156.946 228.018 157.02 227.92C157.094 227.821 157.135 227.701 157.136 227.578V226.205C157.135 226.083 157.175 225.965 157.25 225.869C157.325 225.773 157.43 225.705 157.548 225.677L159.406 225.223C159.572 225.183 159.718 225.086 159.818 224.948L160.589 223.808C160.616 223.769 160.634 223.725 160.641 223.678C160.649 223.631 160.645 223.584 160.631 223.539C160.616 223.494 160.592 223.453 160.559 223.419C160.526 223.385 160.486 223.359 160.441 223.343L157.052 222.097L154.57 220.893C154.463 220.842 154.344 220.819 154.225 220.829C154.106 220.838 153.992 220.878 153.894 220.946L150.726 223.153C150.615 223.228 150.487 223.273 150.354 223.284C150.221 223.295 150.087 223.272 149.966 223.216L147.674 222.16L145.953 221.368C145.919 221.354 145.89 221.329 145.87 221.298C145.85 221.267 145.839 221.231 145.839 221.194C145.839 221.157 145.85 221.121 145.87 221.09C145.89 221.059 145.919 221.035 145.953 221.02L147.695 220.439C147.773 220.415 147.845 220.376 147.907 220.323L150.272 218.338C144.371 218.648 138.606 220.233 133.376 222.984C131.277 228.333 129.789 233.901 128.941 239.584C128.925 239.716 128.941 239.85 128.987 239.975C129.033 240.1 129.107 240.212 129.205 240.302L135.689 246.512C135.804 246.621 135.953 246.688 136.111 246.702L138.519 246.966C138.639 246.975 138.756 247.015 138.857 247.082L148.15 252.668C148.261 252.732 148.352 252.826 148.41 252.941C148.468 253.056 148.492 253.185 148.477 253.312L147.579 262.7C147.539 263.051 147.621 263.406 147.812 263.703L152.352 270.916C152.412 271.009 152.487 271.091 152.574 271.159L156.059 273.841C156.143 273.906 156.207 273.992 156.246 274.09C156.285 274.189 156.297 274.296 156.281 274.401L155.035 282.025L152.659 293.799C152.891 295.383 154.95 294.412 157.939 292.194L160.906 287.316L163.514 286.26L170.188 281.497L174.782 276.291L177.253 270.821C177.296 270.734 177.349 270.652 177.411 270.578L179.925 267.695L181.604 265.953C181.756 265.793 181.843 265.582 181.846 265.361V262.848C181.849 262.821 181.844 262.793 181.834 262.768C181.824 262.742 181.808 262.719 181.788 262.701C181.767 262.683 181.743 262.669 181.716 262.662C181.69 262.654 181.662 262.653 181.635 262.658Z" fill="black"/>
<path d="M170.42 227.039H170.368C170.373 227.018 170.373 226.997 170.368 226.976L170.42 227.039Z" fill="white"/>
<path d="M329.38 333.336C332.823 335.152 359.582 365.333 352.443 379.684C347.163 390.244 314.163 395.154 314.163 395.154L310.098 386.147C310.098 386.147 334.259 377.593 335.685 373.844C337.11 370.095 309.96 350.137 309.96 350.137L329.38 333.336Z" fill="#78B72A"/>
<path opacity="0.3" d="M329.38 333.336C332.823 335.152 359.582 365.333 352.443 379.684C347.163 390.244 314.163 395.154 314.163 395.154L310.098 386.147C310.098 386.147 334.259 377.593 335.685 373.844C337.11 370.095 309.96 350.137 309.96 350.137L329.38 333.336Z" fill="white"/>
<path opacity="0.2" d="M325.705 379.937C324.84 383.443 322.326 386.147 317.194 387.604L320.362 394.014L319.707 394.151L314.702 384.436L325.705 379.937Z" fill="black"/>
<path d="M313.72 382.44L320.721 396.041L307.236 399.093C307.044 399.133 306.862 399.212 306.702 399.327C306.543 399.441 306.409 399.587 306.31 399.756C306.21 399.926 306.147 400.114 306.125 400.309C306.102 400.504 306.121 400.701 306.18 400.888L307.785 405.841C307.918 406.284 307.903 406.758 307.741 407.191C307.579 407.624 307.279 407.992 306.887 408.238L305.831 408.872C305.512 409.061 305.133 409.12 304.771 409.038C304.41 408.955 304.094 408.737 303.888 408.428L292.272 390.888C292.199 390.777 292.152 390.652 292.135 390.52C292.118 390.389 292.132 390.255 292.174 390.129C292.217 390.004 292.288 389.89 292.382 389.796C292.476 389.703 292.59 389.632 292.716 389.589L313.72 382.44Z" fill="#78B72A"/>
<g opacity="0.2">
<path opacity="0.2" d="M313.72 382.44L320.721 396.041L307.236 399.093C307.044 399.133 306.862 399.212 306.702 399.327C306.543 399.441 306.409 399.587 306.31 399.756C306.21 399.926 306.147 400.114 306.125 400.309C306.102 400.504 306.121 400.701 306.18 400.888L307.785 405.841C307.918 406.284 307.903 406.758 307.741 407.191C307.579 407.624 307.279 407.992 306.887 408.238L305.831 408.872C305.512 409.061 305.133 409.12 304.771 409.038C304.41 408.955 304.094 408.737 303.888 408.428L292.272 390.888C292.199 390.777 292.152 390.652 292.135 390.52C292.118 390.389 292.132 390.255 292.174 390.129C292.217 390.004 292.288 389.89 292.382 389.796C292.476 389.703 292.59 389.632 292.716 389.589L313.72 382.44Z" fill="white"/>
</g>
<path opacity="0.2" d="M301.28 386.664C306.238 387.924 311.381 388.281 316.466 387.72L313.72 382.387L301.28 386.664Z" fill="black"/>
<path opacity="0.2" d="M328.039 364.572L330.257 366.6C332.517 358.437 328.441 350.623 327.089 340.2L325.135 340.749C326.996 348.556 327.97 356.547 328.039 364.572Z" fill="black"/>
<path d="M268.713 420.709L249.536 428.07L245.946 399.864L264.89 392.271L268.713 420.709Z" fill="#78B72A"/>
<path opacity="0.2" d="M268.713 420.709L249.536 428.07L245.946 399.864L264.89 392.271L268.713 420.709Z" fill="black"/>
<path d="M256.633 393C268.048 369.631 279.495 352.787 291.026 350.549L378.368 325.416C399.319 322.248 418.222 328.436 434.959 344.614C431.865 370.866 419.119 384.647 400.829 391.173L310.499 414.912C302.252 416.961 285.314 410.603 256.633 393Z" fill="#78B72A"/>
<path d="M232.27 395.862L263.032 381.384C271.078 386.664 271.934 394.542 269.442 400.751L238.226 411.026C231.521 407.034 230.148 402.641 232.27 395.862Z" fill="#78B72A"/>
<path d="M210.707 388.892L198.13 390.022C194.254 390.37 190.596 391.967 187.707 394.573L148.836 429.717L201.435 434.184C204.262 434.427 207.107 433.996 209.735 432.927L219.81 428.809C222.543 427.693 224.959 425.92 226.843 423.647C228.728 421.374 230.022 418.671 230.613 415.778L231.014 413.814C231.618 410.818 231.447 407.717 230.518 404.806L229.377 401.247C228.657 398.99 227.498 396.898 225.966 395.091C224.102 392.915 221.744 391.217 219.089 390.138C216.435 389.06 213.561 388.633 210.707 388.892Z" fill="#78B72A"/>
<path opacity="0.19" d="M210.707 388.892L198.13 390.022C194.254 390.37 190.596 391.967 187.707 394.573L148.836 429.717L201.435 434.184C204.262 434.427 207.107 433.996 209.735 432.927L219.81 428.809C222.543 427.693 224.959 425.92 226.843 423.647C228.728 421.374 230.022 418.671 230.613 415.778L231.014 413.814C231.618 410.818 231.447 407.717 230.518 404.806L229.377 401.247C228.657 398.99 227.498 396.898 225.966 395.091C224.102 392.915 221.744 391.217 219.089 390.138C216.435 389.06 213.561 388.633 210.707 388.892Z" fill="white"/>
<path opacity="0.29" d="M218.553 397.847L212.143 398.428C210.18 398.609 208.327 399.42 206.863 400.74L187.063 418.64L213.854 420.942C215.293 421.063 216.74 420.842 218.078 420.298L223.21 418.186C224.603 417.616 225.834 416.712 226.793 415.554C227.753 414.395 228.412 413.018 228.712 411.543L228.913 410.54C229.224 409.017 229.14 407.439 228.67 405.957L228.089 404.141C227.724 402.98 227.132 401.903 226.346 400.973C225.393 399.866 224.187 399.004 222.831 398.46C221.475 397.916 220.008 397.706 218.553 397.847Z" fill="white"/>
<path d="M221.024 401.68L217.011 402.039C215.778 402.155 214.615 402.666 213.695 403.497L201.319 414.69L218.067 416.126C218.97 416.2 219.877 416.063 220.718 415.725L223.886 414.416C224.756 414.058 225.524 413.491 226.123 412.765C226.721 412.039 227.132 411.177 227.318 410.255L227.445 409.632C227.635 408.68 227.581 407.695 227.286 406.77L226.927 405.63C226.706 404.916 226.347 404.252 225.871 403.676C225.281 402.981 224.533 402.438 223.689 402.091C222.846 401.744 221.933 401.603 221.024 401.68Z" fill="#78B72A"/>
<path opacity="0.1" d="M256.633 393C268.048 369.631 279.495 352.787 291.723 350.348L379.002 325.258C399.266 322.248 418.169 328.478 434.906 344.656C431.812 370.908 419.066 384.689 400.777 391.215L310.446 414.954C302.252 416.961 285.314 410.603 256.633 393Z" fill="black"/>
<path d="M232.27 395.862L263.032 381.384C261.078 389.885 265.344 396.685 269.442 400.751L238.226 411.026C231.521 407.034 230.148 402.641 232.27 395.862Z" fill="#78B72A"/>
<path d="M227.508 442.991L256.897 431.766L262.219 396.337L240.222 404.806L227.508 442.991Z" fill="#78B72A"/>
<path opacity="0.3" d="M227.508 442.991L256.897 431.766L262.219 396.337L240.222 404.806L227.508 442.991Z" fill="white"/>
<path d="M201.974 372.714L234.002 362.978L260.138 386.03L234.868 396.432L201.974 372.714Z" fill="#78B72A"/>
<path opacity="0.3" d="M201.974 372.714L234.002 362.978L260.138 386.03L234.868 396.432L201.974 372.714Z" fill="white"/>
<path opacity="0.7" d="M364.989 329.291L369.403 328.024C367.877 329.065 366.593 330.422 365.64 332.004C364.687 333.586 364.086 335.355 363.88 337.19C360.004 357.592 365.084 376.262 377.988 392.43C380.1 394.605 383.553 395.144 386.499 394.964L382.719 395.957C378.727 396.221 376.879 394.901 374.567 392.789C361.567 380.339 355.844 355.523 360.342 337.475C361.166 333.209 363.151 329.819 364.989 329.291Z" fill="white"/>
<path opacity="0.7" d="M354.925 332.185L359.149 330.971C356.467 332.132 354.207 336.409 353.626 340.094C349.761 360.496 354.872 378.923 367.734 395.334C369.55 397.351 373.215 397.858 376.182 397.689L372.233 398.692C368.241 398.956 366.499 398.005 364.334 395.714C351.334 383.264 345.6 358.448 350.099 340.401C350.733 336.145 353.668 332.544 354.925 332.185Z" fill="white"/>
<path d="M431.96 343.294C431.147 345.48 431.517 347.148 433.576 348.046L460.831 339.809C464.918 338.13 466.428 337.064 460.346 337.835L431.96 343.294Z" fill="#78B72A"/>
<path opacity="0.3" d="M431.96 343.294C431.147 345.48 431.517 347.148 433.576 348.046L460.831 339.809C464.918 338.13 466.428 337.064 460.346 337.835L431.96 343.294Z" fill="black"/>
<path opacity="0.2" d="M266.897 397.826C284.395 404.162 304.078 412.684 312.431 410.171L401.6 386.463C413.353 384.721 424.156 361.859 432.309 347.201C422.805 360.697 413.195 380.581 399.224 383.454L312.431 406.728C302.336 410.076 283.106 402.071 266.897 397.826Z" fill="black"/>
<path opacity="0.4" d="M369.413 330.231C367.698 331.497 366.525 333.364 366.129 335.459L380.913 331.361C394.842 328.331 419.404 337.518 431.601 345.089C421.041 335.712 394.831 324.371 381.969 327.465L369.413 330.231Z" fill="white"/>
<path opacity="0.3" d="M431.854 346.557L433.037 347.771L464.126 338.215L431.854 346.557Z" fill="black"/>
<path opacity="0.2" d="M321.418 341.816L320.658 383.929L290.931 384.087C306.423 390.054 321.872 391.838 325.896 385.83C332.855 374.214 332.548 358.226 328.008 339.904L321.418 341.816Z" fill="black"/>
<path opacity="0.2" d="M328.493 341.763L352.063 335.173C351.175 336.328 350.588 337.685 350.352 339.123L329.232 345.121L328.493 341.763Z" fill="#E6E6E6"/>
<path opacity="0.2" d="M301.882 350.422L289.939 354.234C287.151 355.561 284.643 357.407 282.547 359.673L276.084 367.16L280.53 368.131L285.894 361.88C287.525 359.986 289.527 358.448 291.776 357.36L303.17 353.316L301.882 350.422Z" fill="#E0E0E0"/>
<path d="M278.988 293.736L295.018 306.049L320.858 309.344L336.878 272.299L329.328 261.908L295.018 249.648C286.391 261.919 282.357 277.178 278.988 293.736Z" fill="#78B72A"/>
<path opacity="0.2" d="M278.988 293.736L295.018 306.049L320.858 309.344L336.878 272.299L329.328 261.908L295.018 249.648C287.552 260.419 282.336 275.414 278.988 293.736Z" fill="white"/>
<path opacity="0.3" d="M278.988 293.736L295.018 306.038L311.608 265.044C306.243 261.972 300.721 256.903 295.018 249.648C288.302 258.455 283.033 273.492 278.988 293.736Z" fill="black"/>
<path d="M322.833 333.368C325.008 336.536 334.259 375.935 321.186 385.207C311.576 392.018 280.139 380.74 280.139 380.74L280.804 370.877C280.804 370.877 306.148 374.773 309.179 372.144C312.21 369.515 298.45 345.533 297.721 339.091C296.993 332.65 322.833 333.368 322.833 333.368Z" fill="#78B72A"/>
<path opacity="0.3" d="M322.833 333.368C325.008 336.536 334.259 375.935 321.186 385.207C311.576 392.018 280.139 380.74 280.139 380.74L280.804 370.877C280.804 370.877 306.148 374.773 309.179 372.144C312.21 369.515 298.45 345.533 297.721 339.091C296.993 332.65 322.833 333.368 322.833 333.368Z" fill="white"/>
<path d="M291.839 370.56L290.868 385.819L277.721 381.521C277.533 381.461 277.336 381.441 277.14 381.462C276.945 381.484 276.756 381.547 276.586 381.646C276.417 381.746 276.27 381.881 276.156 382.041C276.042 382.202 275.964 382.384 275.926 382.577L274.764 387.646C274.651 388.095 274.393 388.494 274.03 388.782C273.668 389.071 273.221 389.232 272.758 389.241H271.533C271.161 389.241 270.804 389.099 270.535 388.843C270.266 388.588 270.105 388.239 270.086 387.868L269.114 366.843C269.108 366.709 269.132 366.576 269.186 366.454C269.239 366.332 269.32 366.223 269.422 366.137C269.524 366.051 269.645 365.99 269.775 365.959C269.905 365.927 270.04 365.926 270.17 365.956L291.839 370.56Z" fill="#78B72A"/>
<path d="M345.748 273.292C345.748 273.292 350.553 296.809 353.837 301.529C357.121 306.25 373.901 322.09 373.901 322.09L372.317 327.011C372.317 327.011 347.121 310.843 345.389 308.573C343.657 306.302 331.904 284.232 331.904 284.232L345.748 273.292Z" fill="#78B72A"/>
<path d="M353.837 247.019C353.837 247.019 352.464 253.703 347.29 255.171C342.116 256.639 347.374 242.309 347.374 242.309L352.105 241.147L353.837 247.019Z" fill="#263238"/>
<path d="M353.208 263.243C360.549 255.902 360.549 244.001 353.209 236.66C345.868 229.32 333.966 229.32 326.626 236.66C319.285 244.001 319.285 255.902 326.626 263.243C333.966 270.584 345.868 270.584 353.208 263.243Z" fill="#263238"/>
<path opacity="0.2" d="M353.208 263.243C360.549 255.902 360.549 244.001 353.209 236.66C345.868 229.32 333.966 229.32 326.626 236.66C319.285 244.001 319.285 255.902 326.626 263.243C333.966 270.584 345.868 270.584 353.208 263.243Z" fill="white"/>
<path opacity="0.7" d="M344.576 264.453C348.5 263.66 351.97 261.393 354.27 258.117L352.824 257.262C350.223 260.044 347.034 262.208 343.489 263.598L344.576 264.453Z" fill="white"/>
<path opacity="0.7" d="M354.767 257.124L353.267 256.417C353.612 256.027 353.849 255.554 353.953 255.044L355.358 255.762C355.316 256.269 355.108 256.748 354.767 257.124Z" fill="white"/>
<path d="M325.917 263.893C324.861 267.769 336.012 273.218 339.919 269.342C337.807 267.748 337.258 266.079 337.522 264.453C337.717 263.467 338.108 262.529 338.673 261.697C338.968 261.22 339.292 260.761 339.645 260.324L334.893 250.482C333.911 254.812 331.714 264.59 325.917 263.893Z" fill="#E4897B"/>
<path opacity="0.2" d="M334.766 255.086C332.654 259.912 335.822 263.207 337.522 264.453C337.717 263.466 338.109 262.529 338.673 261.697L334.766 255.086Z" fill="black"/>
<path d="M333.193 256.945C333.576 258.529 334.473 259.942 335.743 260.964C337.013 261.986 338.585 262.559 340.215 262.595C342.325 262.691 344.391 261.977 345.991 260.599C346.215 260.412 346.427 260.211 346.625 259.997C350.363 256.026 354.017 248.032 350.173 243.101C349.331 242.008 348.223 241.15 346.955 240.608C345.687 240.066 344.301 239.859 342.93 240.007C341.558 240.154 340.248 240.651 339.124 241.45C337.999 242.248 337.099 243.322 336.508 244.569C333.879 249.87 332.094 252.858 333.193 256.945Z" fill="#E4897B"/>
<path d="M343.457 250.44C343.389 250.512 343.336 250.596 343.301 250.689C343.267 250.782 343.251 250.881 343.256 250.979C343.261 251.078 343.286 251.175 343.33 251.264C343.373 251.353 343.434 251.432 343.51 251.496C343.795 251.654 344.207 251.496 344.439 251.021C344.671 250.546 344.65 250.144 344.376 249.965C344.101 249.785 343.7 250.049 343.457 250.44Z" fill="#263238"/>
<path d="M348.156 253.175C348.025 253.324 347.958 253.518 347.97 253.716C347.981 253.914 348.071 254.099 348.219 254.231C348.494 254.379 348.906 254.168 349.149 253.756C349.391 253.344 349.36 252.869 349.085 252.7C348.811 252.531 348.388 252.774 348.156 253.175Z" fill="#263238"/>
<path d="M346.551 252.552C346.312 254.108 346.294 255.69 346.498 257.251C346.095 257.292 345.687 257.245 345.304 257.112C344.921 256.978 344.571 256.763 344.281 256.48L346.551 252.552Z" fill="#DE5753"/>
<path d="M342.865 248.117C342.91 248.143 342.961 248.156 343.013 248.156C343.065 248.156 343.116 248.143 343.161 248.117C343.482 247.971 343.833 247.903 344.185 247.917C344.537 247.932 344.881 248.029 345.189 248.201C345.25 248.229 345.319 248.235 345.384 248.217C345.449 248.199 345.506 248.159 345.543 248.103C345.581 248.047 345.598 247.98 345.592 247.913C345.585 247.846 345.554 247.783 345.505 247.737C345.12 247.51 344.686 247.379 344.239 247.355C343.792 247.331 343.347 247.415 342.939 247.599C342.869 247.628 342.813 247.682 342.784 247.751C342.754 247.821 342.753 247.899 342.781 247.969C342.8 248.023 342.828 248.073 342.865 248.117Z" fill="#263238"/>
<path d="M342.369 258.212C341.721 257.963 341.143 257.561 340.684 257.041C340.224 256.521 339.897 255.897 339.729 255.224C339.723 255.183 339.733 255.142 339.756 255.108C339.78 255.075 339.816 255.052 339.856 255.044C339.894 255.038 339.932 255.047 339.964 255.068C339.995 255.09 340.017 255.123 340.025 255.16C340.19 255.78 340.496 256.353 340.919 256.835C341.342 257.316 341.871 257.694 342.464 257.938C342.482 257.943 342.498 257.953 342.512 257.965C342.526 257.978 342.537 257.993 342.545 258.009C342.553 258.026 342.557 258.044 342.558 258.063C342.558 258.081 342.555 258.1 342.549 258.117C342.534 258.153 342.507 258.183 342.471 258.198C342.435 258.214 342.395 258.215 342.359 258.202L342.369 258.212Z" fill="#263238"/>
<path d="M351.113 252.71C351.147 252.754 351.196 252.784 351.25 252.795C351.287 252.799 351.324 252.796 351.36 252.786C351.396 252.775 351.429 252.757 351.457 252.734C351.486 252.71 351.51 252.681 351.527 252.648C351.544 252.615 351.554 252.578 351.556 252.541C351.595 252.096 351.526 251.647 351.355 251.233C351.185 250.82 350.917 250.454 350.574 250.165C350.545 250.143 350.512 250.126 350.477 250.116C350.441 250.107 350.404 250.104 350.368 250.109C350.331 250.114 350.296 250.126 350.264 250.145C350.233 250.164 350.205 250.189 350.183 250.218C350.141 250.279 350.124 250.353 350.136 250.426C350.148 250.499 350.188 250.565 350.247 250.609C350.507 250.848 350.709 251.144 350.837 251.473C350.965 251.803 351.016 252.157 350.986 252.51C350.992 252.55 351.007 252.589 351.028 252.623C351.05 252.658 351.079 252.687 351.113 252.71Z" fill="#263238"/>
<path d="M333.108 247.694C334.27 242.478 336.139 238.666 338.008 237.8C339.877 236.934 344.502 243.333 344.502 243.333C344.22 243.088 343.878 242.923 343.511 242.853C343.145 242.784 342.766 242.812 342.414 242.937C342.062 243.062 341.749 243.277 341.507 243.562C341.266 243.847 341.104 244.19 341.039 244.558C340.796 246.881 338.145 249.331 336.033 249.775C336.033 249.775 336.424 248.909 335.611 248.719C334.798 248.529 332.749 253.048 333.066 255.857C333.066 255.878 331.904 252.911 333.108 247.694Z" fill="#263238"/>
<path d="M331.904 247.515C331.81 248.996 332.308 250.455 333.287 251.57C334.586 253.038 336.308 252.13 336.836 250.334C337.29 248.74 337.195 246.015 335.442 245.223C335.059 245.05 334.64 244.975 334.221 245.006C333.802 245.037 333.398 245.173 333.046 245.402C332.694 245.63 332.405 245.943 332.205 246.312C332.005 246.682 331.902 247.095 331.904 247.515Z" fill="#E4897B"/>
<path d="M336.382 240.313C336.382 240.313 340.025 236.089 347.132 236.659C355.823 237.388 354.661 249.437 353.183 249.954C352.032 250.144 352.929 244.854 351.694 245.35C350.743 246.058 350.743 246.617 349.751 246.522C349.191 246.522 348.526 245.276 347.86 243.956C346.561 242.604 343.584 246.934 341.376 247.832C339.37 247.272 337.691 243.048 336.382 240.313Z" fill="#263238"/>
<path d="M294.807 312.258C294.194 322.248 295.472 334.909 298.609 342.428L325.156 340.76L334.481 338.056C332.728 336.251 328.726 326.736 331.45 311.825L294.807 312.258Z" fill="#78B72A"/>
<g opacity="0.3">
<path opacity="0.3" d="M294.807 312.258C294.194 322.248 295.472 334.909 298.609 342.428L325.156 340.76L334.481 338.056C332.517 335.944 328.884 326.747 331.45 311.825L294.807 312.258Z" fill="white"/>
</g>
<path opacity="0.2" d="M325.156 340.76L326.624 335.68L331.809 338.838L325.156 340.76Z" fill="black"/>
<path d="M334.766 251.084L334.428 253.555C334.322 254.32 334.417 255.098 334.702 255.815L334.861 256.206C335.148 256.924 335.617 257.556 336.223 258.037C336.828 258.519 337.549 258.834 338.314 258.951L339.909 259.194V259.944L337.797 259.543C337.073 259.402 336.395 259.085 335.824 258.618C335.253 258.152 334.806 257.552 334.523 256.871L334.153 255.973C333.823 255.168 333.735 254.283 333.9 253.428L334.375 250.957L334.766 251.084Z" fill="#263238"/>
<path opacity="0.2" d="M334.766 251.084L334.428 253.555C334.322 254.32 334.417 255.098 334.702 255.815L334.861 256.206C335.148 256.924 335.617 257.556 336.223 258.037C336.828 258.519 337.549 258.834 338.314 258.951L339.909 259.194V259.944L337.797 259.543C337.073 259.402 336.395 259.085 335.824 258.618C335.253 258.152 334.806 257.552 334.523 256.871L334.153 255.973C333.823 255.168 333.735 254.283 333.9 253.428L334.375 250.957L334.766 251.084Z" fill="white"/>
<path d="M341.123 258.751H339.993C339.655 258.751 339.381 259.025 339.381 259.363V260.123C339.381 260.462 339.655 260.736 339.993 260.736H341.123C341.461 260.736 341.736 260.462 341.736 260.123V259.363C341.736 259.025 341.461 258.751 341.123 258.751Z" fill="#263238"/>
<path d="M335.051 247.779H334.217C333.849 247.779 333.552 248.077 333.552 248.444V250.757C333.552 251.124 333.849 251.422 334.217 251.422H335.051C335.418 251.422 335.716 251.124 335.716 250.757V248.444C335.716 248.077 335.418 247.779 335.051 247.779Z" fill="#263238"/>
<path opacity="0.15" d="M345.748 273.292C345.748 273.292 350.553 296.809 353.837 301.529C357.121 306.25 374.651 322.808 374.651 322.808L371.662 326.546C371.662 326.546 347.142 310.843 345.41 308.594C343.678 306.345 331.904 284.232 331.904 284.232L345.748 273.292Z" fill="white"/>
<path opacity="0.2" d="M337.48 289.945L341.345 301.624L336.498 292.796L337.48 289.945Z" fill="black"/>
<path d="M294.617 315.373L330.848 317.676C330.848 317.676 335.072 284.591 346.688 273.989L340.722 269.078L324.882 263.587C324.882 263.587 316.793 263.365 312.041 264.379C310.57 266.19 309.229 268.103 308.028 270.103C305.648 273.985 303.586 278.053 301.861 282.268C297.552 292.802 295.101 304.003 294.617 315.373Z" fill="#78B72A"/>
<path opacity="0.2" d="M331.059 316.208L319.443 307.971C317.331 305.943 311.439 291.803 307.025 282.437L331.778 312.258L331.059 316.208Z" fill="black"/>
<path opacity="0.2" d="M319.158 263.64H320.489L344.038 271.813L345.02 272.616C344.725 273.386 344.142 274.011 343.393 274.358L342.031 275.013C333.393 271.866 325.346 268.846 319.158 263.64Z" fill="#263238"/>
<path d="M320.964 271.18C320.964 271.18 327.522 294.042 330.806 298.763C334.09 303.483 356.287 325.215 356.287 325.215L352.739 329.218C352.739 329.218 323.266 309.46 321.534 307.189C319.802 304.919 307.194 283.102 307.194 283.102C303.815 273.799 316.064 259.289 320.964 271.18Z" fill="#78B72A"/>
<path opacity="0.15" d="M320.964 271.18C320.964 271.18 327.522 294.042 330.806 298.763C334.09 303.483 356.287 325.215 356.287 325.215L352.739 329.218C352.739 329.218 323.266 309.46 321.534 307.189C319.802 304.919 307.194 283.102 307.194 283.102C303.815 273.799 316.064 259.289 320.964 271.18Z" fill="white"/>
<path d="M310.33 280.99L312.738 285.932C313.794 281.962 315.695 279.596 318.525 278.941L315.716 273.292C312.984 275.056 311.051 277.819 310.33 280.99Z" fill="#78B72A"/>
<g opacity="0.2">
<path opacity="0.2" d="M291.839 370.56L290.868 385.819L277.721 381.521C277.533 381.461 277.336 381.441 277.14 381.462C276.945 381.484 276.756 381.547 276.586 381.646C276.417 381.746 276.27 381.881 276.156 382.041C276.042 382.202 275.964 382.384 275.926 382.577L274.764 387.646C274.651 388.095 274.393 388.494 274.03 388.782C273.668 389.071 273.221 389.232 272.758 389.241H271.533C271.161 389.241 270.804 389.099 270.535 388.843C270.266 388.588 270.105 388.239 270.086 387.868L269.114 366.843C269.108 366.709 269.132 366.576 269.186 366.454C269.239 366.332 269.32 366.223 269.422 366.137C269.524 366.051 269.645 365.99 269.775 365.959C269.905 365.927 270.04 365.926 270.17 365.956L291.839 370.56Z" fill="white"/>
</g>
<path d="M349.392 315.785L340.574 324.719L352.961 330.326L355.812 336.821C355.866 336.943 355.949 337.049 356.053 337.132C356.157 337.215 356.28 337.271 356.411 337.296C356.542 337.321 356.677 337.314 356.804 337.275C356.932 337.237 357.048 337.168 357.143 337.074L363.299 331.013C363.377 330.938 363.438 330.847 363.478 330.747C363.517 330.646 363.536 330.539 363.531 330.431C363.526 330.323 363.498 330.217 363.449 330.121C363.4 330.025 363.331 329.94 363.246 329.872L357.491 325.089L349.392 315.785Z" fill="#78B72A"/>
<path opacity="0.3" d="M349.392 315.785L340.574 324.719L352.961 330.326L355.812 336.821C355.866 336.943 355.949 337.049 356.053 337.132C356.157 337.215 356.28 337.271 356.411 337.296C356.542 337.321 356.677 337.314 356.804 337.275C356.932 337.237 357.048 337.168 357.143 337.074L363.299 331.013C363.377 330.938 363.438 330.847 363.478 330.747C363.517 330.646 363.536 330.539 363.531 330.431C363.526 330.323 363.498 330.217 363.449 330.121C363.4 330.025 363.331 329.94 363.246 329.872L357.491 325.089L349.392 315.785Z" fill="white"/>
<path d="M358.22 322.026L367.048 312.258L374.883 321.308L380.258 324.033C380.334 324.072 380.401 324.127 380.454 324.193C380.508 324.259 380.547 324.336 380.57 324.418C380.593 324.5 380.598 324.586 380.587 324.671C380.575 324.755 380.546 324.836 380.501 324.909L380.353 325.163L371.23 327.486L370.575 326.704L358.22 322.026Z" fill="#78B72A"/>
<g opacity="0.3">
<path opacity="0.3" d="M358.22 322.026L367.048 312.258L374.883 321.308L380.258 324.033C380.334 324.072 380.401 324.127 380.454 324.193C380.508 324.259 380.547 324.336 380.57 324.418C380.593 324.5 380.598 324.586 380.587 324.671C380.575 324.755 380.546 324.836 380.501 324.909L380.353 325.163L371.23 327.486L370.575 326.704L358.22 322.026Z" fill="white"/>
</g>
<path d="M358.716 249.954C358.72 247.141 358.092 244.363 356.879 241.825C355.667 239.286 353.899 237.053 351.708 235.288C349.517 233.524 346.958 232.274 344.219 231.63C341.481 230.987 338.633 230.966 335.885 231.57C333.138 232.173 330.56 233.386 328.344 235.118C326.128 236.851 324.328 239.059 323.079 241.579C321.829 244.1 321.161 246.868 321.124 249.681C321.087 252.494 321.682 255.28 322.865 257.832L322.105 257.219C320.288 258.275 319.338 260.06 319.401 262.753C326.258 267.903 334.036 271.695 342.316 273.925C343.12 273.236 343.775 272.389 344.24 271.438C344.704 270.486 344.97 269.45 345.02 268.392L344.228 268.223C348.346 267.253 352.018 264.922 354.647 261.607C357.276 258.291 358.71 254.186 358.716 249.954ZM342.876 265.594C340.176 265.594 337.536 264.793 335.29 263.292C333.045 261.792 331.295 259.66 330.261 257.165C329.228 254.67 328.957 251.924 329.484 249.276C330.011 246.627 331.312 244.194 333.221 242.285C335.131 240.375 337.564 239.075 340.212 238.548C342.861 238.021 345.606 238.291 348.101 239.325C350.596 240.358 352.729 242.108 354.229 244.354C355.729 246.599 356.53 249.239 356.53 251.939C356.533 255.554 355.101 259.023 352.549 261.583C349.997 264.143 346.533 265.585 342.918 265.594H342.876Z" fill="#78B72A"/>
<path opacity="0.3" d="M358.716 249.954C358.72 247.141 358.092 244.363 356.879 241.825C355.667 239.286 353.899 237.053 351.708 235.288C349.517 233.524 346.958 232.274 344.219 231.63C341.481 230.987 338.633 230.966 335.885 231.57C333.138 232.173 330.56 233.386 328.344 235.118C326.128 236.851 324.328 239.059 323.079 241.579C321.829 244.1 321.161 246.868 321.124 249.681C321.087 252.494 321.682 255.28 322.865 257.832L322.105 257.219C320.288 258.275 319.338 260.06 319.401 262.753C326.258 267.903 334.036 271.695 342.316 273.925C343.12 273.236 343.775 272.389 344.24 271.438C344.704 270.486 344.97 269.45 345.02 268.392L344.228 268.223C348.346 267.253 352.018 264.922 354.647 261.607C357.276 258.291 358.71 254.186 358.716 249.954ZM342.876 265.594C340.176 265.594 337.536 264.793 335.29 263.292C333.045 261.792 331.295 259.66 330.261 257.165C329.228 254.67 328.957 251.924 329.484 249.276C330.011 246.627 331.312 244.194 333.221 242.285C335.131 240.375 337.564 239.075 340.212 238.548C342.861 238.021 345.606 238.291 348.101 239.325C350.596 240.358 352.729 242.108 354.229 244.354C355.729 246.599 356.53 249.239 356.53 251.939C356.533 255.554 355.101 259.023 352.549 261.583C349.997 264.143 346.533 265.585 342.918 265.594H342.876Z" fill="white"/>
<path opacity="0.2" d="M323.646 258.233L329.328 261.908C325.104 258.846 322.685 254.368 322.221 248.275C321.72 251.663 322.215 255.122 323.646 258.233Z" fill="black"/>
<path opacity="0.2" d="M344.576 233.692C347.414 234.474 350.033 235.899 352.23 237.856C354.428 239.814 356.145 242.252 357.248 244.98C356.355 242.388 354.945 240.003 353.102 237.972C351.26 235.94 349.024 234.305 346.53 233.164L344.576 233.692Z" fill="white"/>
<path opacity="0.2" d="M345.41 232.72L343.541 233.459L341.915 233.164L342.337 231.886C343.414 231.912 344.468 232.198 345.41 232.72Z" fill="white"/>
<path opacity="0.2" d="M291.723 372.281L290.921 384.035L291.586 384.214L292.484 372.355L291.723 372.281Z" fill="#263238"/>
</g>
<defs>
<filter id="filter0_d_17_285" x="-24" y="0.866333" width="694.866" height="693" filterUnits="userSpaceOnUse" color-interpolation-filters="sRGB">
<feFlood flood-opacity="0" result="BackgroundImageFix"/>
<feColorMatrix in="SourceAlpha" type="matrix" values="0 0 0 0 0 0 0 0 0 0 0 0 0 0 0 0 0 0 127 0" result="hardAlpha"/>
<feOffset dx="4" dy="24"/>
<feGaussianBlur stdDeviation="30"/>
<feComposite in2="hardAlpha" operator="out"/>
<feColorMatrix type="matrix" values="0 0 0 0 0.427451 0 0 0 0 0.552941 0 0 0 0 0.678431 0 0 0 0.25 0"/>
<feBlend mode="normal" in2="BackgroundImageFix" result="effect1_dropShadow_17_285"/>
<feBlend mode="normal" in="SourceGraphic" in2="effect1_dropShadow_17_285" result="shape"/>
</filter>
<linearGradient id="paint0_linear_17_285" x1="-242.16" y1="463.228" x2="868.721" y2="463.228" gradientUnits="userSpaceOnUse">
<stop stop-color="#78B72A" stop-opacity="0.6"/>
<stop offset="1" stop-color="#258DC2" stop-opacity="0.6"/>
</linearGradient>
</defs>
</svg>
