<svg width="22" height="22" viewBox="0 0 22 22" fill="none" xmlns="http://www.w3.org/2000/svg">
<path d="M3.5 3.5C3.5 2.70435 3.81607 1.94129 4.37868 1.37868C4.94129 0.816071 5.70435 0.5 6.5 0.5C7.29565 0.5 8.05871 0.816071 8.62132 1.37868C9.18393 1.94129 9.5 2.70435 9.5 3.5C9.5 4.29565 9.18393 5.05871 8.62132 5.62132C8.05871 6.18393 7.29565 6.5 6.5 6.5C5.70435 6.5 4.94129 6.18393 4.37868 5.62132C3.81607 5.05871 3.5 4.29565 3.5 3.5ZM6.5 2C6.10218 2 5.72064 2.15804 5.43934 2.43934C5.15804 2.72064 5 3.10218 5 3.5C5 3.89782 5.15804 4.27936 5.43934 4.56066C5.72064 4.84196 6.10218 5 6.5 5C6.89782 5 7.27936 4.84196 7.56066 4.56066C7.84196 4.27936 8 3.89782 8 3.5C8 3.10218 7.84196 2.72064 7.56066 2.43934C7.27936 2.15804 6.89782 2 6.5 2Z" fill="currentColor"/>
<path d="M13.6685 5.87602C13.3542 5.63631 13.0904 5.33686 12.8922 4.99488C12.6941 4.65291 12.5654 4.27514 12.5137 3.88329C12.462 3.49145 12.4882 3.09324 12.5909 2.71156C12.6935 2.32987 12.8706 1.97224 13.1119 1.6592C13.3532 1.34616 13.654 1.08389 13.9969 0.887455C14.3399 0.691021 14.7183 0.564297 15.1104 0.514565C15.5025 0.464834 15.9006 0.493074 16.2818 0.597663C16.6629 0.702253 17.0197 0.88113 17.3315 1.12402C17.9454 1.61512 18.342 2.32761 18.436 3.10817C18.53 3.88873 18.3137 4.67499 17.8339 5.29776C17.354 5.92053 16.6489 6.33005 15.8702 6.43819C15.0914 6.54633 14.3014 6.34446 13.67 5.87602H13.6685ZM15.5 2.00002C15.1021 2.00002 14.7206 2.15805 14.4393 2.43936C14.158 2.72066 14 3.10219 14 3.50002C14 3.89784 14.158 4.27937 14.4393 4.56068C14.7206 4.84198 15.1021 5.00002 15.5 5.00002C15.8978 5.00002 16.2793 4.84198 16.5606 4.56068C16.8419 4.27937 17 3.89784 17 3.50002C17 3.10219 16.8419 2.72066 16.5606 2.43936C16.2793 2.15805 15.8978 2.00002 15.5 2.00002Z" fill="currentColor"/>
<path d="M2.75 8H6.755C6.59 8.4695 6.5 8.975 6.5 9.5H2.75C2.55109 9.5 2.36032 9.57902 2.21967 9.71967C2.07902 9.86032 2 10.0511 2 10.25C2 11.4755 2.4875 12.3845 3.257 13.0025C3.611 13.2875 4.0355 13.517 4.5155 13.685C4.16301 14.0597 3.89138 14.5029 3.7175 14.987C3.214 14.7847 2.74257 14.5104 2.318 14.1725C1.19 13.265 0.5 11.924 0.5 10.25C0.5 9.65326 0.737053 9.08097 1.15901 8.65901C1.58097 8.23705 2.15326 8 2.75 8Z" fill="currentColor"/>
<path d="M8.40198 8.00002C8.00416 8.68945 7.8965 9.50868 8.1027 10.2775C8.3089 11.0463 8.81205 11.7017 9.50148 12.0995C10.1909 12.4973 11.0101 12.605 11.7789 12.3988C12.5478 12.1926 13.2032 11.6895 13.601 11C13.9988 10.3106 14.1065 9.49136 13.9003 8.72256C13.6941 7.95375 13.1909 7.29834 12.5015 6.90052C11.8121 6.5027 10.9928 6.39504 10.224 6.60124C9.45522 6.80743 8.79981 7.31059 8.40198 8.00002ZM10.664 8.03752C10.8838 7.98787 11.1119 7.98822 11.3315 8.03855C11.5511 8.08887 11.7566 8.18787 11.9329 8.32826C12.1091 8.46864 12.2516 8.64682 12.3497 8.84963C12.4479 9.05244 12.4992 9.27471 12.5 9.50002C12.4999 9.78225 12.4201 10.0587 12.2699 10.2977C12.1197 10.5366 11.9052 10.7283 11.6509 10.8508C11.3966 10.9733 11.113 11.0215 10.8325 10.99C10.552 10.9585 10.2862 10.8485 10.0654 10.6727C9.84465 10.4968 9.67798 10.2623 9.58455 9.99595C9.49113 9.72963 9.47473 9.44236 9.53725 9.16714C9.59977 8.89192 9.73866 8.63992 9.93797 8.4401C10.1373 8.24028 10.3889 8.10074 10.664 8.03752Z" fill="currentColor"/>
<path d="M18.743 13.0025C18.389 13.2875 17.9645 13.517 17.4845 13.685C17.8364 14.0598 18.1076 14.503 18.281 14.987C18.791 14.7785 19.2635 14.507 19.682 14.1725C20.81 13.265 21.5 11.924 21.5 10.25C21.5 9.65326 21.2629 9.08097 20.841 8.65901C20.419 8.23705 19.8467 8 19.25 8H15.245C15.41 8.4695 15.5 8.975 15.5 9.5H19.25C19.4489 9.5 19.6397 9.57902 19.7803 9.71967C19.921 9.86032 20 10.0511 20 10.25C20 11.4755 19.5125 12.3845 18.743 13.0025Z" fill="currentColor"/>
<path d="M14.75 14C15.3467 14 15.919 14.2371 16.341 14.659C16.763 15.081 17 15.6533 17 16.25C17 17.924 16.3115 19.265 15.182 20.1725C14.0705 21.065 12.5795 21.5 11 21.5C9.42051 21.5 7.92951 21.065 6.81801 20.1725C5.69001 19.265 5.00001 17.924 5.00001 16.25C4.99922 15.9543 5.05687 15.6614 5.16967 15.388C5.28246 15.1147 5.44816 14.8663 5.65725 14.6573C5.86634 14.4482 6.11469 14.2825 6.38803 14.1697C6.66137 14.0569 6.95431 13.9992 7.25001 14H14.75ZM14.75 15.5H7.25001C7.0511 15.5 6.86033 15.579 6.71968 15.7197C6.57903 15.8603 6.50001 16.0511 6.50001 16.25C6.50001 17.4755 6.98751 18.3845 7.75701 19.0025C8.54601 19.6355 9.68001 20 11 20C12.32 20 13.454 19.6355 14.243 19.0025C15.0125 18.3845 15.5 17.4755 15.5 16.25C15.5 16.0511 15.421 15.8603 15.2803 15.7197C15.1397 15.579 14.9489 15.5 14.75 15.5Z" fill="currentColor"/>
</svg>
