<svg width="19" height="19" viewBox="0 0 19 19" fill="none" xmlns="http://www.w3.org/2000/svg">
<path d="M12.036 0.777011C12.3848 0.683558 12.7487 0.659736 13.1068 0.706906C13.4648 0.754077 13.8101 0.871316 14.1228 1.05193C14.4356 1.23254 14.7097 1.47299 14.9295 1.75954C15.1493 2.0461 15.3106 2.37315 15.404 2.72201L18.122 12.864C18.2154 13.2129 18.2393 13.5767 18.1921 13.9348C18.1449 14.2928 18.0277 14.6381 17.8471 14.9509C17.6665 15.2636 17.426 15.5377 17.1395 15.7575C16.8529 15.9774 16.5259 16.1386 16.177 16.232L9.89999 17.915C9.551 18.0088 9.18695 18.0328 8.82866 17.9858C8.47037 17.9388 8.12486 17.8216 7.81189 17.6409C7.49891 17.4603 7.2246 17.2198 7.00465 16.9331C6.78469 16.6463 6.6234 16.3191 6.52999 15.97L3.81299 5.82801C3.71954 5.47915 3.69572 5.11531 3.74289 4.75724C3.79006 4.39918 3.9073 4.05391 4.08791 3.74116C4.26852 3.42841 4.50897 3.1543 4.79552 2.93448C5.08208 2.71465 5.40912 2.55343 5.75799 2.46001L12.036 0.777011ZM3.80299 9.65801L5.56499 16.228C5.7381 16.8793 6.08436 17.4716 6.56699 17.942L6.12399 17.918C5.39573 17.8798 4.71248 17.5538 4.22452 17.0118C3.73656 16.4699 3.48386 15.7563 3.52199 15.028L3.80299 9.65801ZM12.424 2.22601L6.14599 3.91001C5.82595 3.9958 5.55307 4.20515 5.38731 4.49204C5.22155 4.77893 5.17647 5.1199 5.26199 5.44001L7.97899 15.583C8.02146 15.7416 8.09476 15.8902 8.19469 16.0205C8.29461 16.1507 8.41922 16.26 8.56139 16.3421C8.70356 16.4242 8.86051 16.4775 9.02327 16.4989C9.18603 16.5203 9.35142 16.5095 9.50999 16.467L15.789 14.784C16.109 14.6982 16.3819 14.4889 16.5477 14.202C16.7134 13.9151 16.7585 13.5741 16.673 13.254L13.955 3.11001C13.8692 2.78997 13.6599 2.51709 13.373 2.35133C13.0861 2.18557 12.7451 2.14049 12.425 2.22601H12.424ZM2.87799 8.18001L2.52299 14.976C2.48599 15.674 2.64299 16.338 2.94699 16.916L2.53299 16.755C2.19581 16.6256 1.88742 16.4311 1.62543 16.1825C1.36345 15.9339 1.15299 15.6361 1.00609 15.3062C0.859183 14.9762 0.778706 14.6206 0.769253 14.2596C0.759799 13.8985 0.821554 13.5392 0.950991 13.202L2.87799 8.18001ZM7.74099 5.03401C7.86785 5 8.00016 4.99131 8.13038 5.00843C8.26059 5.02555 8.38616 5.06815 8.49992 5.13381C8.61367 5.19946 8.71337 5.28687 8.79334 5.39105C8.87331 5.49524 8.93198 5.61415 8.96599 5.74101C9 5.86787 9.0087 6.00018 8.99157 6.1304C8.97445 6.26061 8.93185 6.38618 8.8662 6.49994C8.80055 6.61369 8.71313 6.71339 8.60895 6.79336C8.50476 6.87333 8.38585 6.932 8.25899 6.96601C8.13213 7.00002 7.99982 7.00872 7.8696 6.99159C7.73939 6.97447 7.61382 6.93187 7.50007 6.86622C7.27033 6.73363 7.10268 6.51521 7.03399 6.25901C6.9653 6.00281 7.0012 5.72982 7.13378 5.50009C7.26637 5.27035 7.48479 5.1027 7.74099 5.03401Z" fill="currentColor"/>
</svg>
