<svg width="23" height="24" viewBox="0 0 23 24" fill="none" xmlns="http://www.w3.org/2000/svg">
<path d="M3.5 22.5H12.5C12.8977 22.4996 13.279 22.3414 13.5602 22.0602C13.8414 21.779 13.9996 21.3977 14 21V18.75H12.5V21H3.5V3H12.5V5.25H14V3C13.9996 2.6023 13.8414 2.221 13.5602 1.93978C13.279 1.65856 12.8977 1.5004 12.5 1.5H3.5C3.1023 1.5004 2.721 1.65856 2.43978 1.93978C2.15856 2.221 2.0004 2.6023 2 3V21C2.0004 21.3977 2.15856 21.779 2.43978 22.0602C2.721 22.3414 3.1023 22.4996 3.5 22.5Z" fill="currentColor"/>
<path d="M14.4395 15.4395L17.129 12.75H6.5V11.25H17.129L14.4395 8.5605L15.5 7.5L20 12L15.5 16.5L14.4395 15.4395Z" fill="currentColor"/>
</svg>
