<svg width="24" height="24" viewBox="0 0 24 24" fill="none" xmlns="http://www.w3.org/2000/svg">
<path d="M18.4687 16.5444V4.49991C18.4687 4.29366 18.3 4.1249 18.0937 4.1249H14.1094V2.51241C14.1094 2.37178 13.9453 2.29209 13.8352 2.37881L10.8445 4.74131C10.8243 4.75695 10.8079 4.77701 10.7966 4.79997C10.7854 4.82293 10.7795 4.84816 10.7795 4.87373C10.7795 4.89931 10.7854 4.92454 10.7966 4.9475C10.8079 4.97045 10.8243 4.99052 10.8445 5.00616L13.8328 7.36865C13.943 7.45537 14.107 7.37803 14.107 7.23506V5.62491H16.7789V16.5444C15.743 16.896 14.9977 17.878 14.9977 19.0312C14.9977 20.4796 16.1742 21.6562 17.6227 21.6562C19.0711 21.6562 20.2477 20.4796 20.2477 19.0312C20.25 17.878 19.5047 16.8983 18.4687 16.5444ZM17.625 20.1562C17.3306 20.1501 17.0503 20.029 16.8442 19.8187C16.6382 19.6083 16.5227 19.3256 16.5227 19.0312C16.5227 18.7367 16.6382 18.454 16.8442 18.2437C17.0503 18.0333 17.3306 17.9122 17.625 17.9062C17.9194 17.9122 18.1997 18.0333 18.4058 18.2437C18.6118 18.454 18.7273 18.7367 18.7273 19.0312C18.7273 19.3256 18.6118 19.6083 18.4058 19.8187C18.1997 20.029 17.9194 20.1501 17.625 20.1562ZM9 4.96865C9 3.52022 7.82344 2.34366 6.375 2.34366C4.92656 2.34366 3.75 3.52022 3.75 4.96865C3.75 6.12178 4.49531 7.10147 5.53125 7.45537V16.5468C4.49531 16.8983 3.75 17.8804 3.75 19.0335C3.75 20.4819 4.92656 21.6585 6.375 21.6585C7.82344 21.6585 9 20.4819 9 19.0335C9 17.8804 8.25469 16.9007 7.21875 16.5468V7.45537C8.25469 7.10147 9 6.12178 9 4.96865ZM5.25 4.96865C5.25601 4.67426 5.37718 4.39396 5.5875 4.18788C5.79782 3.98181 6.08055 3.86639 6.375 3.86639C6.66945 3.86639 6.95218 3.98181 7.1625 4.18788C7.37282 4.39396 7.49399 4.67426 7.5 4.96865C7.49399 5.26305 7.37282 5.54335 7.1625 5.74943C6.95218 5.9555 6.66945 6.07092 6.375 6.07092C6.08055 6.07092 5.79782 5.9555 5.5875 5.74943C5.37718 5.54335 5.25601 5.26305 5.25 4.96865ZM7.5 19.0312C7.49399 19.3255 7.37282 19.6059 7.1625 19.8119C6.95218 20.018 6.66945 20.1334 6.375 20.1334C6.08055 20.1334 5.79782 20.018 5.5875 19.8119C5.37718 19.6059 5.25601 19.3255 5.25 19.0312C5.25601 18.7368 5.37718 18.4565 5.5875 18.2504C5.79782 18.0443 6.08055 17.9289 6.375 17.9289C6.66945 17.9289 6.95218 18.0443 7.1625 18.2504C7.37282 18.4565 7.49399 18.7368 7.5 19.0312Z" fill="currentColor"/>
</svg>
